<svg width="30" height="30" viewBox="0 0 30 30" fill="none" xmlns="http://www.w3.org/2000/svg">
<g id="academyArtboard 1 1">
<path id="Vector" d="M24.8198 13.6203V20.0503C24.8198 20.8303 24.3998 21.5503 23.7298 21.9403L16.0898 26.3503C15.4198 26.7403 14.5798 26.7403 13.9097 26.3503L6.26969 21.9403C5.66969 21.6003 5.17969 20.7503 5.17969 20.0503V13.5703L8.56969 15.5203L13.3497 18.2803C14.3997 18.8903 15.6897 18.8903 16.7497 18.2803L24.8198 13.6203Z" fill="white" stroke="#2E3238" stroke-width="0.8" stroke-linecap="round" stroke-linejoin="round"/>
<path id="Vector_2" d="M27.7216 11.9499L24.8216 13.6199L16.7516 18.2799C15.6916 18.8899 14.4016 18.8899 13.3516 18.2799L8.57156 15.5199L5.18156 13.5699L2.29156 11.8999C1.62156 11.5099 1.62156 10.5499 2.29156 10.1598L13.3016 3.79992C14.3316 3.20992 15.5916 3.20992 16.6116 3.79992L27.7216 10.2099C28.3916 10.5999 28.3916 11.5599 27.7216 11.9499Z" fill="white" stroke="#2E3238" stroke-width="0.8" stroke-linecap="round" stroke-linejoin="round"/>
<path id="Vector_3" d="M16.3776 10.9422C16.3776 11.107 16.307 11.2717 16.1775 11.4013C15.9539 11.6132 15.6007 11.7426 15.2006 11.7426C14.9416 11.719 14.718 11.6955 14.5179 11.6131C14.5061 11.6013 14.4943 11.6013 14.4826 11.5895C14.1648 11.4365 14 11.1894 14 10.9186C14 10.4713 14.5179 10.1182 15.1888 10.1182C15.8715 10.13 16.3776 10.4714 16.3776 10.9422Z" fill="#505967"/>
<path id="Vector_4" d="M8.57031 20.2898V15.5198L13.5903 12.0298H13.6003L15.0003 11.0498" stroke="#505967" stroke-width="0.5" stroke-linecap="round" stroke-linejoin="round"/>
</g>
</svg>
