<svg width="30" height="30" viewBox="0 0 30 30" fill="none" xmlns="http://www.w3.org/2000/svg">
<path d="M10.053 11.2236L5.0528 13.7236C4.71401 13.893 4.5 14.2393 4.5 14.618V19.382C4.5 19.7607 4.71401 20.107 5.0528 20.2764L10.053 22.7764C10.3345 22.9172 10.6659 22.9172 10.9474 22.7764L15.9472 20.2764C16.286 20.107 16.5 19.7607 16.5 19.382V14.618C16.5 14.2393 16.286 13.893 15.9472 13.7236L10.9474 11.2236C10.6659 11.0828 10.3345 11.0828 10.053 11.2236Z" fill="white"/>
<path d="M10.4995 17.0008L15.999 14.2012M10.4995 17.0008L5 14.2012M10.4995 17.0008L10.499 22.5008" stroke="#505967" stroke-width="0.478383" stroke-linecap="round" stroke-linejoin="round"/>
<path d="M10.053 11.2236L5.0528 13.7236C4.71401 13.893 4.5 14.2393 4.5 14.618V19.382C4.5 19.7607 4.71401 20.107 5.0528 20.2764L10.053 22.7764C10.3345 22.9172 10.6659 22.9172 10.9474 22.7764L15.9472 20.2764C16.286 20.107 16.5 19.7607 16.5 19.382V14.618C16.5 14.2393 16.286 13.893 15.9472 13.7236L10.9474 11.2236C10.6659 11.0828 10.3345 11.0828 10.053 11.2236Z" stroke="#2E3238" stroke-width="0.751745" stroke-linecap="round" stroke-linejoin="round"/>
<path d="M10.053 2.2236L5.0528 4.72361C4.71401 4.893 4.5 5.23927 4.5 5.61804V10.382C4.5 10.7607 4.71401 11.107 5.0528 11.2764L10.053 13.7764C10.3345 13.9172 10.6659 13.9172 10.9474 13.7764L15.9472 11.2764C16.286 11.107 16.5 10.7607 16.5 10.382V5.61802C16.5 5.23926 16.286 4.893 15.9472 4.7236L10.9474 2.22361C10.6659 2.08285 10.3345 2.08284 10.053 2.2236Z" fill="white"/>
<path d="M10.4995 8.00083L15.999 5.20117M10.4995 8.00083L5 5.20117M10.4995 8.00083L10.499 13.5008" stroke="#505967" stroke-width="0.478383" stroke-linecap="round" stroke-linejoin="round"/>
<path d="M10.053 2.2236L5.0528 4.72361C4.71401 4.893 4.5 5.23927 4.5 5.61804V10.382C4.5 10.7607 4.71401 11.107 5.0528 11.2764L10.053 13.7764C10.3345 13.9172 10.6659 13.9172 10.9474 13.7764L15.9472 11.2764C16.286 11.107 16.5 10.7607 16.5 10.382V5.61802C16.5 5.23926 16.286 4.893 15.9472 4.7236L10.9474 2.22361C10.6659 2.08285 10.3345 2.08284 10.053 2.2236Z" stroke="#2E3238" stroke-width="0.751745" stroke-linecap="round" stroke-linejoin="round"/>
<path d="M19.053 16.2236L14.0528 18.7236C13.714 18.893 13.5 19.2393 13.5 19.618V24.382C13.5 24.7607 13.714 25.107 14.0528 25.2764L19.053 27.7764C19.3345 27.9172 19.6659 27.9172 19.9474 27.7764L24.9472 25.2764C25.286 25.107 25.5 24.7607 25.5 24.382V19.618C25.5 19.2393 25.286 18.893 24.9472 18.7236L19.9474 16.2236C19.6659 16.0828 19.3345 16.0828 19.053 16.2236Z" fill="white"/>
<path d="M19.4995 22.0008L24.999 19.2012M19.4995 22.0008L14 19.2012M19.4995 22.0008L19.499 27.5008" stroke="#505967" stroke-width="0.478383" stroke-linecap="round" stroke-linejoin="round"/>
<path d="M19.053 16.2236L14.0528 18.7236C13.714 18.893 13.5 19.2393 13.5 19.618V24.382C13.5 24.7607 13.714 25.107 14.0528 25.2764L19.053 27.7764C19.3345 27.9172 19.6659 27.9172 19.9474 27.7764L24.9472 25.2764C25.286 25.107 25.5 24.7607 25.5 24.382V19.618C25.5 19.2393 25.286 18.893 24.9472 18.7236L19.9474 16.2236C19.6659 16.0828 19.3345 16.0828 19.053 16.2236Z" stroke="#2E3238" stroke-width="0.751745" stroke-linecap="round" stroke-linejoin="round"/>
<path d="M19.053 7.2236L14.0528 9.72361C13.714 9.893 13.5 10.2393 13.5 10.618V15.382C13.5 15.7607 13.714 16.107 14.0528 16.2764L19.053 18.7764C19.3345 18.9172 19.6659 18.9172 19.9474 18.7764L24.9472 16.2764C25.286 16.107 25.5 15.7607 25.5 15.382V10.618C25.5 10.2393 25.286 9.893 24.9472 9.7236L19.9474 7.22361C19.6659 7.08285 19.3345 7.08284 19.053 7.2236Z" fill="white"/>
<path d="M19.4995 13.0008L24.999 10.2012M19.4995 13.0008L14 10.2012M19.4995 13.0008L19.499 18.5008" stroke="#505967" stroke-width="0.478383" stroke-linecap="round" stroke-linejoin="round"/>
<path d="M19.053 7.2236L14.0528 9.72361C13.714 9.893 13.5 10.2393 13.5 10.618V15.382C13.5 15.7607 13.714 16.107 14.0528 16.2764L19.053 18.7764C19.3345 18.9172 19.6659 18.9172 19.9474 18.7764L24.9472 16.2764C25.286 16.107 25.5 15.7607 25.5 15.382V10.618C25.5 10.2393 25.286 9.893 24.9472 9.7236L19.9474 7.22361C19.6659 7.08285 19.3345 7.08284 19.053 7.2236Z" stroke="#2E3238" stroke-width="0.751745" stroke-linecap="round" stroke-linejoin="round"/>
</svg>
