<svg width="51" height="50" viewBox="0 0 51 50" fill="none" xmlns="http://www.w3.org/2000/svg">
<path d="M2 40L42 17" stroke="#505967" stroke-width="0.83" stroke-linecap="round" stroke-linejoin="round"/>
<path d="M3.67871 44.1876L46.6651 19.3159" stroke="#505967" stroke-width="0.83" stroke-linecap="round" stroke-linejoin="round"/>
<path d="M11 45L49 23" stroke="#505967" stroke-width="0.83" stroke-linecap="round" stroke-linejoin="round"/>
<path d="M49 40L9 17" stroke="#505967" stroke-width="0.83" stroke-linecap="round" stroke-linejoin="round"/>
<path d="M47.3213 44.1876L4.33486 19.3159" stroke="#505967" stroke-width="0.83" stroke-linecap="round" stroke-linejoin="round"/>
<path d="M40 45L2 23" stroke="#505967" stroke-width="0.83" stroke-linecap="round" stroke-linejoin="round"/>
<path d="M5.16287 39.3753C5.16604 38.7923 4.34992 38.3152 3.34003 38.3097C2.33013 38.3042 1.50889 38.7724 1.50572 39.3555C1.50256 39.9385 2.31868 40.4156 3.32858 40.421C4.33847 40.4265 5.15971 39.9583 5.16287 39.3753Z" fill="white" stroke="#505967" stroke-width="0.83" stroke-linecap="round" stroke-linejoin="round"/>
<path d="M13.7937 44.3587C13.7969 43.7757 12.9808 43.2986 11.9709 43.2931C10.961 43.2876 10.1397 43.7558 10.1366 44.3389C10.1334 44.9219 10.9495 45.399 11.9594 45.4044C12.9693 45.4099 13.7906 44.9417 13.7937 44.3587Z" fill="white" stroke="#505967" stroke-width="0.83" stroke-linecap="round" stroke-linejoin="round"/>
<path d="M46.7619 45.243C47.7718 45.2375 48.5879 44.7605 48.5847 44.1774C48.5816 43.5944 47.7603 43.1262 46.7504 43.1317C45.7406 43.1372 44.9244 43.6142 44.9276 44.1973C44.9308 44.7803 45.752 45.2485 46.7619 45.243Z" fill="white" stroke="#505967" stroke-width="0.83" stroke-linecap="round" stroke-linejoin="round"/>
<path d="M7.375 15.9774V30.1832C7.375 31.4424 8.26712 32.9875 9.35757 33.6171L23.2354 41.6294C24.4622 42.3378 25.9737 42.3378 27.2005 41.6294L41.0783 33.6171C42.3051 32.9087 43.0609 31.5998 43.0609 30.1832V15.9774C43.0609 14.5609 42.3051 13.2519 41.0783 12.5436L27.2005 4.53127C25.9737 3.82291 24.4622 3.82291 23.2354 4.53127L9.35757 12.5436C8.1308 13.2519 7.375 14.5609 7.375 15.9774Z" fill="white" stroke="#2E3238" stroke-width="1.33" stroke-linecap="round" stroke-linejoin="round"/>
<path d="M27.7163 23.4416L38.115 17.4399C38.8842 16.996 39.8453 17.5511 39.8453 18.4391V29.2298C39.8453 29.939 39.467 30.5943 38.8528 30.949L28.4541 36.9523C27.6849 37.3963 26.7236 36.8414 26.7236 35.9532V25.1607C26.7236 24.4515 27.102 23.7961 27.7163 23.4416Z" stroke="#505967" stroke-width="0.83" stroke-linecap="round" stroke-linejoin="round"/>
</svg>
